<svg id="airplane-flight" xmlns="http://www.w3.org/2000/svg" viewBox="0 0 37.006 37.008">
  <defs>
    <style>
      .cls-1 {
        fill: #fff;
      }
    </style>
  </defs>
  <path id="Path_1" data-name="Path 1" class="cls-1" d="M35.665.09,31.749,1.872a2.356,2.356,0,0,0-.679.471L24.689,8.728,2.712,6.093a1.306,1.306,0,0,0-1.08.374L.409,7.691A1.307,1.307,0,0,0,.8,9.809l15.749,7.061-4.522,4.522h-7.9a1.321,1.321,0,0,0-.926.382l-.66.664a1.307,1.307,0,0,0,.409,2.126l6.663,2.855,2.855,6.663a1.307,1.307,0,0,0,2.126.409l.664-.664a1.3,1.3,0,0,0,.382-.926V25l4.522-4.522,7.061,15.753a1.307,1.307,0,0,0,2.118.39L30.565,35.4a1.31,1.31,0,0,0,.374-1.08L28.3,12.344l6.385-6.385a2.3,2.3,0,0,0,.471-.679l1.783-3.916A.96.96,0,0,0,35.665.09Z" transform="translate(-0.025 0)"/>
</svg>
