<svg id="calendar" xmlns="http://www.w3.org/2000/svg" viewBox="0 0 37.42 37.42">
  <defs>
    <style>
      .cls-1 {
        fill: #3b55e6;
      }
    </style>
  </defs>
  <g id="Group_7" data-name="Group 7">
    <g id="Group_6" data-name="Group 6">
      <path id="Path_2" data-name="Path 2" class="cls-1" d="M33.035,2.923H31.281V0H28.357V2.923H9.063V0H6.139V2.923H4.385A4.39,4.39,0,0,0,0,7.309V33.035A4.39,4.39,0,0,0,4.385,37.42h28.65a4.39,4.39,0,0,0,4.385-4.385V7.309A4.39,4.39,0,0,0,33.035,2.923ZM34.5,33.035A1.463,1.463,0,0,1,33.035,34.5H4.385a1.463,1.463,0,0,1-1.462-1.462V13.74H34.5Zm0-22.218H2.923V7.309A1.463,1.463,0,0,1,4.385,5.847H6.139V8.77H9.063V5.847H28.357V8.77h2.923V5.847h1.754A1.463,1.463,0,0,1,34.5,7.309Z"/>
    </g>
  </g>
  <g id="Group_9" data-name="Group 9" transform="translate(5.555 16.81)">
    <g id="Group_8" data-name="Group 8">
      <rect id="Rectangle_7" data-name="Rectangle 7" class="cls-1" width="2.923" height="2.923"/>
    </g>
  </g>
  <g id="Group_11" data-name="Group 11" transform="translate(11.401 16.81)">
    <g id="Group_10" data-name="Group 10">
      <rect id="Rectangle_8" data-name="Rectangle 8" class="cls-1" width="2.923" height="2.923"/>
    </g>
  </g>
  <g id="Group_13" data-name="Group 13" transform="translate(17.248 16.81)">
    <g id="Group_12" data-name="Group 12">
      <rect id="Rectangle_9" data-name="Rectangle 9" class="cls-1" width="2.923" height="2.923"/>
    </g>
  </g>
  <g id="Group_15" data-name="Group 15" transform="translate(23.095 16.81)">
    <g id="Group_14" data-name="Group 14">
      <rect id="Rectangle_10" data-name="Rectangle 10" class="cls-1" width="2.923" height="2.923"/>
    </g>
  </g>
  <g id="Group_17" data-name="Group 17" transform="translate(28.942 16.81)">
    <g id="Group_16" data-name="Group 16">
      <rect id="Rectangle_11" data-name="Rectangle 11" class="cls-1" width="2.923" height="2.923"/>
    </g>
  </g>
  <g id="Group_19" data-name="Group 19" transform="translate(5.555 22.657)">
    <g id="Group_18" data-name="Group 18">
      <rect id="Rectangle_12" data-name="Rectangle 12" class="cls-1" width="2.923" height="2.923"/>
    </g>
  </g>
  <g id="Group_21" data-name="Group 21" transform="translate(11.401 22.657)">
    <g id="Group_20" data-name="Group 20">
      <rect id="Rectangle_13" data-name="Rectangle 13" class="cls-1" width="2.923" height="2.923"/>
    </g>
  </g>
  <g id="Group_23" data-name="Group 23" transform="translate(17.248 22.657)">
    <g id="Group_22" data-name="Group 22">
      <rect id="Rectangle_14" data-name="Rectangle 14" class="cls-1" width="2.923" height="2.923"/>
    </g>
  </g>
  <g id="Group_25" data-name="Group 25" transform="translate(23.095 22.657)">
    <g id="Group_24" data-name="Group 24">
      <rect id="Rectangle_15" data-name="Rectangle 15" class="cls-1" width="2.923" height="2.923"/>
    </g>
  </g>
  <g id="Group_27" data-name="Group 27" transform="translate(5.555 28.503)">
    <g id="Group_26" data-name="Group 26">
      <rect id="Rectangle_16" data-name="Rectangle 16" class="cls-1" width="2.923" height="2.923"/>
    </g>
  </g>
  <g id="Group_29" data-name="Group 29" transform="translate(11.401 28.503)">
    <g id="Group_28" data-name="Group 28">
      <rect id="Rectangle_17" data-name="Rectangle 17" class="cls-1" width="2.923" height="2.923"/>
    </g>
  </g>
  <g id="Group_31" data-name="Group 31" transform="translate(17.248 28.503)">
    <g id="Group_30" data-name="Group 30">
      <rect id="Rectangle_18" data-name="Rectangle 18" class="cls-1" width="2.923" height="2.923"/>
    </g>
  </g>
  <g id="Group_33" data-name="Group 33" transform="translate(23.095 28.503)">
    <g id="Group_32" data-name="Group 32">
      <rect id="Rectangle_19" data-name="Rectangle 19" class="cls-1" width="2.923" height="2.923"/>
    </g>
  </g>
  <g id="Group_35" data-name="Group 35" transform="translate(28.942 22.657)">
    <g id="Group_34" data-name="Group 34">
      <rect id="Rectangle_20" data-name="Rectangle 20" class="cls-1" width="2.923" height="2.923"/>
    </g>
  </g>
</svg>
