<svg id="XMLID_1419_" xmlns="http://www.w3.org/2000/svg" viewBox="0 0 47.56 47.56">
  <defs>
    <style>
      .cls-1 {
        fill: #3f5d9b;
      }

      .cls-2 {
        fill: #fff;
      }
    </style>
  </defs>
  <path id="XMLID_1421_" class="cls-1" d="M134.38,86.26h0A23.8,23.8,0,0,1,110.6,62.48h0A23.8,23.8,0,0,1,134.38,38.7h0a23.8,23.8,0,0,1,23.78,23.78h0A23.76,23.76,0,0,1,134.38,86.26Z" transform="translate(-110.6 -38.7)"/>
  <path id="XMLID_1420_" class="cls-2" d="M139.481,81.681h5.763V67.241h4.041l.4-4.835h-4.438V59.624c0-1.126.2-1.59,1.325-1.59h3.113V53h-3.974c-4.306,0-6.226,1.921-6.226,5.5V62.34H136.5v4.9h2.981Z" transform="translate(-119.344 -43.528)"/>
</svg>
