<svg id="XMLID_1346_" xmlns="http://www.w3.org/2000/svg" xmlns:xlink="http://www.w3.org/1999/xlink" viewBox="0 0 47.56 47.56">
  <defs>
    <style>
      .cls-1 {
        fill: url(#radial-gradient);
      }

      .cls-2 {
        fill: #fff;
      }
    </style>
    <radialGradient id="radial-gradient" cx="200.311" cy="86.43" r="87.843" gradientUnits="userSpaceOnUse">
      <stop offset="0" stop-color="#f3ec55"/>
      <stop offset="0.241" stop-color="#e48242"/>
      <stop offset="0.346" stop-color="#d66863"/>
      <stop offset="0.442" stop-color="#cd4f74"/>
      <stop offset="0.489" stop-color="#c94379"/>
      <stop offset="1" stop-color="#4056a6"/>
    </radialGradient>
  </defs>
  <path id="XMLID_1418_" class="cls-1" d="M225.28,86.26h0A23.8,23.8,0,0,1,201.5,62.48h0A23.8,23.8,0,0,1,225.28,38.7h0a23.8,23.8,0,0,1,23.78,23.78h0A23.8,23.8,0,0,1,225.28,86.26Z" transform="translate(-201.5 -38.7)"/>
  <g id="XMLID_1347_" transform="translate(10.731 10.797)">
    <path id="XMLID_1352_" class="cls-2" d="M230.749,57.318c3.511,0,3.908,0,5.233.066a7.134,7.134,0,0,1,2.451.464,4.662,4.662,0,0,1,1.523.994,4.059,4.059,0,0,1,.994,1.523,6.77,6.77,0,0,1,.464,2.451c.066,1.391.066,1.788.066,5.233,0,3.511,0,3.908-.066,5.233a7.132,7.132,0,0,1-.464,2.451,4.662,4.662,0,0,1-.994,1.523,4.059,4.059,0,0,1-1.523.994,6.771,6.771,0,0,1-2.451.464c-1.391.066-1.788.066-5.233.066-3.511,0-3.908,0-5.233-.066a7.133,7.133,0,0,1-2.451-.464,4.662,4.662,0,0,1-1.524-.994,4.058,4.058,0,0,1-.994-1.523,6.77,6.77,0,0,1-.464-2.451c-.066-1.391-.066-1.788-.066-5.233,0-3.511,0-3.908.066-5.233a7.134,7.134,0,0,1,.464-2.451,4.661,4.661,0,0,1,.994-1.523,4.059,4.059,0,0,1,1.524-.994,6.771,6.771,0,0,1,2.451-.464c1.325,0,1.722-.066,5.233-.066m0-2.318c-3.511,0-3.974,0-5.365.066a9.693,9.693,0,0,0-3.179.6,6.846,6.846,0,0,0-3.842,3.842,9.694,9.694,0,0,0-.6,3.179c-.066,1.391-.066,1.855-.066,5.365s0,3.974.066,5.365a9.7,9.7,0,0,0,.6,3.179,6.846,6.846,0,0,0,3.842,3.842,9.694,9.694,0,0,0,3.179.6c1.391.066,1.855.066,5.365.066s3.974,0,5.365-.066a9.694,9.694,0,0,0,3.179-.6,6.846,6.846,0,0,0,3.842-3.842,9.694,9.694,0,0,0,.6-3.179c.066-1.391.066-1.855.066-5.365s0-3.974-.066-5.365a9.694,9.694,0,0,0-.6-3.179,6.846,6.846,0,0,0-3.842-3.842,9.694,9.694,0,0,0-3.179-.6C234.723,55,234.26,55,230.749,55" transform="translate(-217.7 -55)"/>
    <path id="XMLID_1349_" class="cls-2" d="M233.99,64.6a6.69,6.69,0,1,0,6.69,6.69,6.672,6.672,0,0,0-6.69-6.69m0,11a4.372,4.372,0,1,1,4.372-4.372A4.368,4.368,0,0,1,233.99,75.6" transform="translate(-220.941 -58.241)"/>
    <path id="XMLID_1348_" class="cls-2" d="M248.579,63.39a1.59,1.59,0,1,1-1.59-1.59,1.569,1.569,0,0,1,1.59,1.59" transform="translate(-227.052 -57.296)"/>
  </g>
</svg>
