<svg xmlns="http://www.w3.org/2000/svg" viewBox="0 0 33.872 29.176">
  <defs>
    <style>
      .cls-1 {
        fill: #1f2748;
      }
    </style>
  </defs>
  <path id="Path_17" data-name="Path 17" class="cls-1" d="M0,48.577a1.641,1.641,0,0,0,1.174,1.485l12.408,3.751.456,8.553a.848.848,0,0,0,.573.746.777.777,0,0,0,.276.048.839.839,0,0,0,.636-.283l4.387-4.857,6.218,4.3a1.631,1.631,0,0,0,.94.3A1.668,1.668,0,0,0,28.694,61.3l5.161-26.3a.844.844,0,0,0-1.147-.946L1,46.953A1.667,1.667,0,0,0,0,48.577ZM15.616,60.245l-.283-5.4,3.178,2.2Zm11.427.656L15.727,53.067,31.6,37.716Zm2.812-23.863L14.166,52.217,1.771,48.473Z" transform="translate(0 -33.985)"/>
</svg>
