<svg id="XMLID_1341_" xmlns="http://www.w3.org/2000/svg" viewBox="0 0 47.56 47.56">
  <defs>
    <style>
      .cls-1 {
        fill: #ce202a;
      }

      .cls-2 {
        fill: #fff;
      }
    </style>
  </defs>
  <path id="XMLID_1343_" class="cls-1" d="M316.08,86.26h0A23.8,23.8,0,0,1,292.3,62.48h0A23.8,23.8,0,0,1,316.08,38.7h0a23.8,23.8,0,0,1,23.78,23.78h0A23.76,23.76,0,0,1,316.08,86.26Z" transform="translate(-292.3 -38.7)"/>
  <path id="XMLID_1342_" class="cls-2" d="M314.978,69.627c.4.132.729,0,.795-.4.066-.265.265-.994.331-1.325.133-.4.066-.53-.265-.927a4.709,4.709,0,0,1-1.06-3.179,7.641,7.641,0,0,1,7.949-7.75c4.372,0,6.756,2.65,6.756,6.226,0,4.7-2.053,8.611-5.167,8.611a2.51,2.51,0,0,1-2.583-3.113c.464-2.053,1.457-4.239,1.457-5.763a2.195,2.195,0,0,0-2.186-2.451c-1.722,0-3.113,1.788-3.113,4.173a6.29,6.29,0,0,0,.53,2.583s-1.788,7.485-2.053,8.81a20.5,20.5,0,0,0-.066,6.16c0,.2.265.265.4.066a17.314,17.314,0,0,0,2.915-5.3c.2-.729,1.126-4.438,1.126-4.438a4.593,4.593,0,0,0,3.974,1.987c5.233,0,8.744-4.769,8.744-11.128,0-4.835-4.041-9.273-10.267-9.273-7.684,0-11.592,5.5-11.592,10.135C311.666,66.249,312.726,68.7,314.978,69.627Z" transform="translate(-298.816 -43.595)"/>
</svg>
