<svg id="XMLID_1449_" xmlns="http://www.w3.org/2000/svg" viewBox="0 0 47.56 47.56">
  <defs>
    <style>
      .cls-1 {
        fill: #2ca8e0;
      }

      .cls-2 {
        fill: #fff;
      }
    </style>
  </defs>
  <path id="XMLID_1451_" class="cls-1" d="M43.48,86.26h0A23.8,23.8,0,0,1,19.7,62.48h0A23.8,23.8,0,0,1,43.48,38.7h0A23.8,23.8,0,0,1,67.26,62.48h0A23.718,23.718,0,0,1,43.48,86.26Z" transform="translate(-19.7 -38.7)"/>
  <path id="XMLID_1450_" class="cls-2" d="M36.5,77.382A14.884,14.884,0,0,0,44.449,79.7,14.676,14.676,0,0,0,59.22,64.267,10.089,10.089,0,0,0,61.8,61.551a10.986,10.986,0,0,1-2.981.795A5.051,5.051,0,0,0,61.075,59.5a9.546,9.546,0,0,1-3.312,1.259A5.256,5.256,0,0,0,53.987,59.1a5.139,5.139,0,0,0-5.034,6.359,14.67,14.67,0,0,1-10.731-5.432,5.2,5.2,0,0,0,1.59,6.955,4.958,4.958,0,0,1-2.385-.662A5.225,5.225,0,0,0,41.6,71.487a4.565,4.565,0,0,1-2.318.066,5.131,5.131,0,0,0,4.835,3.577A9.812,9.812,0,0,1,36.5,77.382Z" transform="translate(-25.372 -45.587)"/>
</svg>
