<svg id="XMLID_94_" xmlns="http://www.w3.org/2000/svg" viewBox="0 0 47.56 47.56">
  <defs>
    <style>
      .cls-1 {
        fill: #c22b27;
      }

      .cls-2 {
        fill: #fff;
      }
    </style>
  </defs>
  <path id="XMLID_108_" class="cls-1" d="M406.98,86.26h0A23.8,23.8,0,0,1,383.2,62.48h0A23.8,23.8,0,0,1,406.98,38.7h0a23.8,23.8,0,0,1,23.78,23.78h0A23.8,23.8,0,0,1,406.98,86.26Z" transform="translate(-383.2 -38.7)"/>
  <g id="XMLID_95_" transform="translate(4.769 10.4)">
    <path id="XMLID_106_" class="cls-2" d="M427.626,58.573a4.828,4.828,0,0,0-3.378-3.378c-2.981-.795-14.837-.795-14.837-.795s-11.923,0-14.838.795a4.828,4.828,0,0,0-3.378,3.378c-.795,2.981-.795,9.207-.795,9.207s0,6.226.795,9.207a4.828,4.828,0,0,0,3.378,3.378c2.981.795,14.838.795,14.838.795s11.923,0,14.837-.795a4.828,4.828,0,0,0,3.378-3.378c.795-2.981.795-9.207.795-9.207S428.421,61.62,427.626,58.573Z" transform="translate(-390.4 -54.4)"/>
    <path id="XMLID_103_" class="cls-1" d="M413.2,77.427V66.1l9.936,5.7Z" transform="translate(-398.098 -58.35)"/>
  </g>
</svg>
